<?xml version="1.0" encoding="UTF-8" standalone="no"?>
<svg
   id="svg"
   version="1.1"
   width="384.21616"
   height="118.25251"
   viewBox="0 0 384.21616 118.25251"
   sodipodi:docname="Mass-Cubed-Sticker-White.svg"
   inkscape:version="1.1.1 (3bf5ae0d25, 2021-09-20)"
   xmlns:inkscape="http://www.inkscape.org/namespaces/inkscape"
   xmlns:sodipodi="http://sodipodi.sourceforge.net/DTD/sodipodi-0.dtd"
   xmlns="http://www.w3.org/2000/svg"
   xmlns:svg="http://www.w3.org/2000/svg">
  <defs
     id="defs7" />
  <sodipodi:namedview
     id="namedview5"
     pagecolor="#ffffff"
     bordercolor="#666666"
     borderopacity="1.0"
     inkscape:pageshadow="2"
     inkscape:pageopacity="0.0"
     inkscape:pagecheckerboard="0"
     showgrid="false"
     fit-margin-top="0"
     fit-margin-left="0"
     fit-margin-right="0"
     fit-margin-bottom="0"
     inkscape:zoom="2.9575"
     inkscape:cx="189.8563"
     inkscape:cy="60.185968"
     inkscape:window-width="1920"
     inkscape:window-height="1015"
     inkscape:window-x="0"
     inkscape:window-y="0"
     inkscape:window-maximized="1"
     inkscape:current-layer="svg" />
  <g
     id="svgg"
     transform="translate(-10,-6.5902863)"
     style="fill:#ffffff">
    <path
       id="path0"
       d="m 383.344,6.713 c -3.33,0.752 -5.438,2.98 -5.971,6.315 l -0.057,0.355 2.175,0.358 c 2.711,0.445 2.448,0.465 2.585,-0.193 0.79,-3.771 5.876,-3.79 5.876,-0.022 0,1.846 -1.4,3.232 -3.272,3.237 -0.866,0.003 -0.798,-0.126 -1.096,2.061 -0.309,2.273 -0.362,2.092 0.558,1.887 3.09,-0.687 5.067,1.052 4.877,4.289 -0.274,4.683 -5.868,5.358 -7.021,0.848 -0.104,-0.405 -0.211,-0.759 -0.237,-0.785 -0.044,-0.045 -3.956,0.402 -4.547,0.519 -0.653,0.13 0.211,2.805 1.417,4.387 2.904,3.809 9.297,4.205 13.006,0.805 4.031,-3.695 3.186,-10.5 -1.482,-11.938 l -0.686,-0.211 0.67,-0.439 c 4.737,-3.095 3.439,-9.671 -2.237,-11.335 -0.929,-0.272 -3.604,-0.353 -4.558,-0.138 m -213.14,14.989 c -0.161,0.15 -0.308,0.257 -0.328,0.238 -0.019,-0.019 -0.042,0.018 -0.051,0.084 -0.009,0.065 -0.042,0.279 -0.074,0.475 -0.046,0.284 0.002,0.47 0.239,0.924 0.163,0.313 0.296,0.629 0.296,0.703 0,0.073 0.128,0.444 0.284,0.824 0.157,0.38 0.258,0.735 0.224,0.79 -0.036,0.057 -0.015,0.07 0.048,0.031 0.07,-0.043 0.11,0.003 0.11,0.125 0,0.106 0.059,0.334 0.131,0.506 0.215,0.516 0.335,0.936 0.252,0.885 -0.095,-0.059 -1.941,0.519 -3.049,0.955 -0.446,0.175 -0.96,0.347 -1.143,0.382 -0.402,0.076 -1.723,0.565 -2.204,0.815 -0.19,0.099 -0.401,0.18 -0.468,0.18 -0.068,0 -0.19,0.056 -0.273,0.125 -0.083,0.069 -0.343,0.204 -0.579,0.301 -0.236,0.096 -0.664,0.282 -0.952,0.413 -0.288,0.132 -0.578,0.239 -0.643,0.24 -0.066,0 -0.098,0.022 -0.072,0.047 0.048,0.049 -0.212,0.219 -0.607,0.396 -0.563,0.252 -1.596,0.791 -1.726,0.9 -0.231,0.193 -1.85,1.051 -1.936,1.025 -0.043,-0.013 -0.055,0.014 -0.027,0.059 0.028,0.046 -0.146,0.182 -0.388,0.302 -0.241,0.121 -0.711,0.406 -1.045,0.634 -0.333,0.228 -0.643,0.415 -0.688,0.415 -0.046,0 -0.136,0.064 -0.201,0.142 -0.065,0.078 -0.162,0.114 -0.217,0.081 -0.054,-0.034 -0.074,-0.021 -0.043,0.028 0.051,0.084 -0.697,0.655 -0.944,0.72 -0.06,0.016 -0.253,-0.149 -0.429,-0.367 -0.939,-1.163 -2.278,-2.779 -2.493,-3.009 -0.136,-0.144 -0.229,-0.261 -0.207,-0.261 0.04,0 -0.105,-0.176 -0.605,-0.732 -0.89,-0.989 -2.518,-10e-4 -2.124,1.288 0.059,0.192 0.384,0.675 0.722,1.075 0.339,0.4 0.596,0.754 0.573,0.786 -0.024,0.032 -0.017,0.039 0.015,0.016 0.033,-0.024 0.349,0.33 0.703,0.786 0.355,0.455 0.777,0.953 0.938,1.105 0.162,0.152 0.267,0.323 0.235,0.381 -0.033,0.057 -0.026,0.073 0.016,0.036 0.041,-0.038 0.16,0.04 0.264,0.172 0.104,0.131 0.173,0.254 0.154,0.271 -0.019,0.017 -0.356,0.287 -0.749,0.6 -0.393,0.313 -0.83,0.678 -0.97,0.811 -0.141,0.133 -0.287,0.214 -0.325,0.18 -0.038,-0.034 -0.039,-0.009 -0.003,0.054 0.042,0.073 -0.078,0.208 -0.32,0.36 -0.212,0.134 -0.785,0.639 -1.272,1.122 -0.487,0.484 -1.091,1.047 -1.341,1.251 -0.25,0.205 -0.622,0.584 -0.826,0.842 -0.205,0.258 -0.372,0.447 -0.372,0.42 0,-0.081 -1.568,1.557 -1.609,1.681 -0.062,0.186 -0.609,0.858 -0.9,1.106 -0.275,0.234 -0.845,1.047 -1.075,1.531 -0.134,0.285 -0.392,0.564 -0.459,0.497 -0.037,-0.037 -0.054,-0.023 -0.036,0.033 0.048,0.154 -0.511,0.994 -0.618,0.927 -0.052,-0.031 -0.069,-0.018 -0.039,0.031 0.03,0.049 -0.022,0.191 -0.116,0.315 l -0.17,0.226 -0.37,-0.294 c -0.203,-0.162 -0.627,-0.449 -0.941,-0.637 -0.718,-0.429 -1.494,-1.087 -1.422,-1.204 0.03,-0.049 0.019,-0.077 -0.025,-0.063 -0.088,0.029 -0.932,-0.58 -1.374,-0.99 -0.151,-0.14 -0.274,-0.237 -0.274,-0.215 0,0.022 -0.196,-0.11 -0.436,-0.293 -0.977,-0.745 -2.289,0.024 -2.094,1.228 0.035,0.216 0.069,0.445 0.074,0.511 0.006,0.065 0.028,0.102 0.049,0.081 0.02,-0.02 0.136,0.055 0.258,0.167 0.198,0.183 0.825,0.609 1.292,0.876 0.097,0.055 0.506,0.411 0.909,0.79 0.403,0.379 1.099,0.934 1.545,1.233 1.39,0.929 1.45,0.973 1.45,1.045 -0.001,0.074 -0.919,1.907 -1.036,2.069 -0.039,0.053 -0.147,0.289 -0.242,0.525 -0.255,0.638 -0.325,0.782 -0.531,1.095 -0.104,0.157 -0.217,0.35 -0.252,0.428 -0.034,0.079 -0.27,0.452 -0.524,0.83 -0.254,0.378 -0.462,0.709 -0.462,0.734 0,0.026 -0.103,0.199 -0.229,0.385 -0.326,0.479 -0.869,1.626 -1.063,2.242 -0.091,0.288 -0.234,0.603 -0.318,0.7 -0.084,0.097 -0.141,0.194 -0.128,0.215 0.071,0.113 0.007,0.229 -0.096,0.17 -0.065,-0.037 -0.091,-0.037 -0.057,10e-4 0.035,0.039 -0.1,0.42 -0.3,0.849 -0.327,0.703 -1.011,3.057 -1.122,3.86 l -0.044,0.319 -0.474,-0.051 c -0.261,-0.028 -0.548,-0.118 -0.639,-0.2 -0.09,-0.082 -0.219,-0.149 -0.287,-0.149 -0.067,0 -0.321,-0.061 -0.564,-0.135 -0.243,-0.074 -0.763,-0.228 -1.155,-0.342 -0.393,-0.114 -0.856,-0.268 -1.028,-0.341 -0.172,-0.074 -0.399,-0.134 -0.505,-0.134 -0.122,0 -0.168,-0.041 -0.125,-0.11 0.041,-0.067 0.026,-0.084 -0.038,-0.045 -0.058,0.036 -0.263,0 -0.455,-0.08 -0.647,-0.271 -1.316,-0.198 -1.699,0.186 -0.72,0.72 -0.484,1.768 0.486,2.162 0.33,0.134 2.209,0.753 2.453,0.808 0.936,0.213 1.803,0.498 2.635,0.869 0.606,0.269 0.617,0.34 0.199,1.284 -0.111,0.251 -0.162,0.431 -0.113,0.402 0.048,-0.03 0.021,0.105 -0.06,0.299 -0.082,0.195 -0.181,0.55 -0.222,0.79 -0.243,1.44 -0.654,3.374 -0.812,3.816 -0.368,1.034 -0.465,1.339 -0.59,1.857 -0.076,0.314 -0.176,0.764 -0.222,1 -0.098,0.499 -0.374,1.549 -0.419,1.594 -0.069,0.069 -2.358,0.022 -3.247,-0.066 -2.723,-0.271 -4.81,-0.062 -4.81,0.481 0,0.053 -0.036,0.075 -0.079,0.048 -0.099,-0.061 -0.128,0.099 -0.128,0.705 0,0.606 0.029,0.765 0.128,0.704 0.043,-0.027 0.079,-0.006 0.079,0.046 0,0.382 0.594,0.535 2.095,0.539 0.812,0.002 2.408,0.041 3.547,0.086 l 2.071,0.082 -0.071,0.676 c -0.117,1.121 -0.082,7.533 0.047,8.438 0.188,1.327 0.3,2.354 0.406,3.714 0.055,0.708 0.12,1.376 0.144,1.487 0.041,0.189 -0.004,0.203 -0.836,0.254 -0.483,0.03 -1.329,0.126 -1.879,0.213 -0.55,0.087 -1.407,0.22 -1.905,0.296 -0.497,0.076 -1.065,0.179 -1.262,0.23 -0.196,0.051 -0.518,0.133 -0.714,0.184 -0.196,0.051 -0.654,0.158 -1.017,0.238 -0.362,0.081 -0.73,0.211 -0.817,0.289 -0.087,0.079 -0.193,0.111 -0.237,0.072 -0.043,-0.04 -0.051,-0.023 -0.017,0.036 0.034,0.06 -0.002,0.161 -0.08,0.226 -0.095,0.079 -0.142,0.296 -0.142,0.659 0,1.104 1.147,1.514 2.865,1.026 1.196,-0.34 3.942,-0.765 5.683,-0.88 L 130,98.843 v 0.248 c 0,0.137 0.063,0.345 0.14,0.463 0.077,0.117 0.247,0.533 0.379,0.925 0.472,1.403 0.606,1.782 0.698,1.96 0.051,0.099 0.146,0.351 0.211,0.561 0.142,0.458 0.521,1.123 1.101,1.932 0.237,0.33 0.406,0.638 0.378,0.684 -0.029,0.047 -0.009,0.112 0.045,0.146 0.054,0.033 0.194,0.235 0.311,0.448 0.476,0.865 0.943,1.488 1.335,1.78 0.169,0.126 0.508,0.49 0.753,0.81 0.246,0.32 0.653,0.813 0.905,1.097 0.252,0.283 0.458,0.547 0.458,0.587 0,0.039 0.039,0.107 0.087,0.151 0.051,0.046 0.057,0.028 0.016,-0.043 -0.039,-0.068 0.222,0.168 0.58,0.523 0.358,0.356 0.633,0.686 0.612,0.733 -0.021,0.047 0.002,0.061 0.05,0.031 0.232,-0.143 0.556,0.284 0.429,0.565 -0.194,0.43 -1.287,1.83 -1.383,1.771 -0.048,-0.03 -0.061,-0.013 -0.03,0.038 0.074,0.119 -0.931,1.38 -1.03,1.291 -0.042,-0.037 -0.049,-0.021 -0.016,0.037 0.033,0.057 -0.014,0.186 -0.104,0.286 -0.64,0.708 -0.687,0.803 -0.687,1.37 0,0.498 0.029,0.58 0.281,0.792 0.154,0.129 0.261,0.255 0.238,0.278 -0.024,0.023 0.011,0.05 0.076,0.06 1.277,0.186 1.142,0.276 3.006,-2.006 0.415,-0.509 0.786,-0.895 0.823,-0.858 0.038,0.038 0.058,0.026 0.045,-0.027 -0.038,-0.157 0.116,-0.431 0.21,-0.373 0.048,0.03 0.076,0.019 0.063,-0.024 -0.029,-0.091 0.705,-1.265 0.792,-1.267 0.059,-0.002 0.313,0.163 1.18,0.771 0.262,0.183 0.669,0.409 0.905,0.503 0.67,0.265 1.42,0.632 1.476,0.722 0.027,0.045 0.183,0.111 0.345,0.147 0.352,0.077 0.926,0.34 1.512,0.694 0.236,0.142 0.686,0.337 1,0.435 0.315,0.097 0.786,0.253 1.048,0.347 0.262,0.094 0.74,0.249 1.062,0.346 0.323,0.096 0.563,0.214 0.533,0.262 -0.029,0.047 -0.002,0.054 0.061,0.015 0.063,-0.039 0.172,-0.022 0.243,0.037 0.071,0.059 0.209,0.122 0.306,0.141 0.097,0.019 0.347,0.098 0.557,0.176 1.278,0.474 5.065,1.096 6.762,1.112 1.153,0.01 1.098,-0.176 0.686,2.337 -0.137,0.83 -0.132,2.621 0.006,2.482 0.023,-0.022 0.134,0.065 0.246,0.194 0.251,0.288 1.006,0.405 1.443,0.222 0.157,-0.065 0.328,-0.109 0.381,-0.096 0.052,0.013 0.063,-0.009 0.023,-0.048 -0.039,-0.039 -0.002,-0.148 0.082,-0.241 0.089,-0.098 0.187,-0.46 0.234,-0.865 0.044,-0.382 0.123,-0.931 0.174,-1.219 0.051,-0.288 0.144,-0.968 0.206,-1.509 l 0.114,-0.986 0.869,0.065 c 0.478,0.035 1.316,0.125 1.862,0.199 1.494,0.204 2.55,0.181 7.198,-0.152 0.628,-0.045 1.4,-0.128 1.714,-0.186 0.314,-0.057 1.129,-0.143 1.81,-0.189 1.182,-0.081 2.513,-0.267 3.333,-0.464 0.209,-0.051 0.595,-0.137 0.857,-0.191 0.262,-0.054 0.721,-0.207 1.02,-0.34 0.624,-0.277 0.592,-0.302 0.841,0.677 0.104,0.408 0.275,0.924 0.379,1.146 0.104,0.222 0.189,0.451 0.189,0.509 0,0.058 0.062,0.219 0.139,0.358 0.077,0.139 0.316,0.789 0.532,1.444 0.613,1.856 1.314,2.447 2.18,1.84 0.17,-0.118 0.21,-0.125 0.156,-0.023 -0.039,0.074 0.022,0.028 0.135,-0.103 0.114,-0.131 0.175,-0.174 0.136,-0.095 -0.042,0.084 -0.035,0.11 0.016,0.063 0.048,-0.043 0.09,-0.108 0.095,-0.143 0.004,-0.035 0.04,-0.137 0.08,-0.227 0.185,-0.418 -0.21,-2.148 -0.718,-3.141 -0.099,-0.193 -0.18,-0.414 -0.18,-0.491 0,-0.076 -0.131,-0.431 -0.291,-0.788 -0.16,-0.357 -0.337,-0.865 -0.392,-1.128 -0.056,-0.263 -0.135,-0.541 -0.176,-0.617 -0.059,-0.109 0.094,-0.197 0.701,-0.408 0.919,-0.317 2.421,-1.033 2.992,-1.424 0.228,-0.156 0.457,-0.248 0.524,-0.21 0.065,0.037 0.085,0.032 0.045,-0.012 -0.04,-0.045 0.133,-0.169 0.385,-0.278 0.253,-0.108 0.836,-0.453 1.297,-0.768 0.461,-0.314 0.919,-0.618 1.019,-0.675 0.099,-0.057 0.256,-0.167 0.348,-0.244 0.092,-0.077 0.36,-0.222 0.596,-0.322 0.436,-0.184 0.95,-0.501 1.06,-0.652 0.034,-0.046 0.115,-0.05 0.182,-0.009 0.078,0.049 0.097,0.036 0.052,-0.035 -0.037,-0.061 -0.019,-0.11 0.04,-0.11 0.059,0 0.247,-0.107 0.418,-0.238 0.171,-0.13 0.571,-0.376 0.889,-0.547 0.318,-0.171 0.943,-0.557 1.388,-0.858 0.952,-0.644 0.91,-0.637 1.345,-0.227 0.187,0.176 0.34,0.297 0.34,0.269 0,-0.029 0.118,0.076 0.262,0.233 0.144,0.156 0.547,0.547 0.895,0.867 0.349,0.321 0.606,0.614 0.572,0.652 -0.035,0.038 -0.018,0.045 0.035,0.014 0.054,-0.03 0.204,0.031 0.334,0.136 0.129,0.105 0.175,0.16 0.101,0.121 -0.089,-0.047 -0.11,-0.033 -0.064,0.041 0.038,0.061 0.104,0.089 0.148,0.062 0.043,-0.027 0.361,0.23 0.707,0.57 0.345,0.341 0.602,0.619 0.572,0.619 -0.031,0 0.117,0.145 0.329,0.322 0.212,0.177 0.355,0.355 0.319,0.396 -0.037,0.041 -0.017,0.045 0.045,0.01 0.062,-0.035 0.142,-0.016 0.179,0.042 0.036,0.059 0.242,0.187 0.459,0.285 1.546,0.703 2.721,-1.292 1.321,-2.243 -0.181,-0.124 -0.7,-0.583 -1.153,-1.021 -0.453,-0.437 -1.032,-0.963 -1.287,-1.167 -0.256,-0.204 -0.813,-0.706 -1.238,-1.115 -0.426,-0.409 -0.806,-0.745 -0.846,-0.746 -0.31,-0.006 0.138,-0.4 1.319,-1.157 0.764,-0.491 1.439,-0.936 1.5,-0.99 0.223,-0.2 1.065,-0.657 1.158,-0.629 0.052,0.016 0.064,-0.002 0.027,-0.039 -0.089,-0.089 1.372,-1.24 1.83,-1.441 0.196,-0.086 1.245,-0.917 1.465,-1.161 0.098,-0.109 0.227,-0.171 0.286,-0.138 0.058,0.033 0.076,0.027 0.04,-0.013 -0.037,-0.041 0.134,-0.234 0.38,-0.43 0.246,-0.196 0.528,-0.447 0.627,-0.559 0.099,-0.111 0.223,-0.175 0.277,-0.141 0.053,0.033 0.071,0.018 0.039,-0.033 -0.031,-0.052 0.269,-0.39 0.667,-0.753 0.399,-0.363 0.925,-0.9 1.171,-1.194 l 0.445,-0.534 0.325,0.272 c 0.179,0.15 0.506,0.365 0.726,0.478 0.227,0.116 0.376,0.25 0.342,0.309 -0.032,0.057 -0.027,0.075 0.012,0.04 0.04,-0.035 0.293,0.066 0.563,0.226 0.269,0.159 0.576,0.328 0.682,0.376 0.105,0.048 0.491,0.252 0.857,0.454 0.367,0.202 0.849,0.462 1.072,0.577 0.223,0.116 0.38,0.25 0.35,0.299 -0.03,0.049 -0.019,0.08 0.024,0.068 0.043,-0.012 0.302,0.094 0.575,0.236 1.01,0.523 2.052,0.058 2.191,-0.978 0.077,-0.575 -0.485,-1.337 -0.986,-1.337 -0.09,0 -0.245,-0.075 -0.346,-0.166 -0.217,-0.198 -0.851,-0.574 -1.641,-0.973 -0.315,-0.159 -0.743,-0.393 -0.953,-0.521 -0.209,-0.128 -0.555,-0.321 -0.769,-0.43 -0.213,-0.108 -0.608,-0.361 -0.877,-0.561 l -0.49,-0.365 0.711,-0.982 c 0.391,-0.54 0.711,-1.021 0.711,-1.069 0,-0.048 0.053,-0.056 0.119,-0.018 0.065,0.037 0.091,0.037 0.058,0 -0.034,-0.038 0.212,-0.624 0.547,-1.301 0.335,-0.678 0.609,-1.278 0.609,-1.334 0,-0.055 0.043,-0.074 0.094,-0.042 0.053,0.032 0.071,-0.003 0.042,-0.08 -0.03,-0.076 -0.011,-0.165 0.041,-0.197 0.087,-0.054 0.777,-1.405 0.831,-1.627 0.085,-0.348 0.793,-2.22 0.901,-2.381 0.056,-0.083 0.597,-1.658 0.851,-2.476 0.049,-0.158 0.133,-0.543 0.188,-0.858 0.054,-0.314 0.143,-0.785 0.197,-1.047 0.055,-0.262 0.14,-0.905 0.189,-1.429 0.05,-0.524 0.136,-1.231 0.191,-1.571 0.055,-0.341 0.11,-1.401 0.121,-2.357 l 0.021,-1.737 0.286,-0.002 c 2.751,-0.025 4.704,-0.256 5.08,-0.603 1.162,-1.07 0.246,-2.364 -1.536,-2.17 -0.483,0.053 -1.563,0.121 -2.402,0.153 -0.838,0.031 -1.663,0.081 -1.833,0.111 -0.246,0.043 -0.309,0.022 -0.309,-0.102 0,-0.193 -0.354,-1.256 -0.526,-1.579 -0.322,-0.605 -0.808,-1.68 -0.808,-1.787 0,-0.331 -0.826,-2.043 -1.266,-2.626 -0.273,-0.36 -0.481,-0.704 -0.464,-0.764 0.018,-0.06 0.002,-0.079 -0.035,-0.042 -0.109,0.109 -1.068,-1.379 -1.014,-1.574 0.012,-0.043 -0.015,-0.056 -0.059,-0.028 -0.045,0.028 -0.2,-0.136 -0.344,-0.364 -0.144,-0.228 -0.334,-0.494 -0.421,-0.591 -0.088,-0.097 -0.406,-0.538 -0.707,-0.98 l -0.546,-0.804 0.309,-0.14 c 0.17,-0.076 0.352,-0.129 0.404,-0.116 0.053,0.012 0.064,-0.009 0.026,-0.047 -0.038,-0.039 0.326,-0.289 0.81,-0.556 0.483,-0.267 1.007,-0.577 1.164,-0.688 0.411,-0.29 1.317,-0.761 1.605,-0.833 1.345,-0.338 1.115,-2.628 -0.265,-2.631 -0.255,0 -0.447,0.072 -1.482,0.559 -0.184,0.087 -0.655,0.353 -1.048,0.593 -2.916,1.779 -2.851,1.757 -3.227,1.09 -0.163,-0.289 -0.297,-0.567 -0.297,-0.617 0,-0.051 -0.186,-0.362 -0.414,-0.692 -0.403,-0.582 -1.205,-2.213 -1.205,-2.448 0,-0.064 -0.103,-0.342 -0.229,-0.618 -0.351,-0.767 -0.667,-2.104 -0.769,-3.248 -0.033,-0.367 -0.128,-1.053 -0.212,-1.524 -0.293,-1.649 -0.078,-5.401 0.312,-5.453 0.101,-0.013 0.57,-0.108 1.041,-0.21 1.459,-0.315 2.266,-0.473 2.762,-0.54 1.132,-0.151 1.667,-0.603 1.667,-1.41 0,-1.116 -1.1,-1.486 -3.022,-1.015 -0.79,0.193 -1.955,0.438 -2.502,0.526 l -0.334,0.054 -0.181,-0.786 c -0.1,-0.432 -0.235,-0.894 -0.301,-1.027 -0.066,-0.132 -0.149,-0.411 -0.183,-0.619 -0.177,-1.056 -1.174,-3.111 -2.101,-4.33 -0.219,-0.288 -0.408,-0.566 -0.419,-0.619 -0.012,-0.052 -0.046,-0.116 -0.076,-0.143 -0.03,-0.026 -0.024,0.006 0.014,0.072 0.037,0.065 0.051,0.119 0.03,0.119 -0.091,0 -0.97,-1.285 -0.941,-1.376 0.017,-0.055 0.007,-0.076 -0.022,-0.047 -0.029,0.029 -0.396,-0.281 -0.815,-0.691 -0.419,-0.409 -0.806,-0.743 -0.859,-0.743 -0.054,0 -0.098,-0.039 -0.098,-0.086 0,-0.047 -0.256,-0.277 -0.57,-0.509 -0.313,-0.233 -0.538,-0.456 -0.5,-0.494 0.039,-0.038 0.027,-0.056 -0.025,-0.04 -0.1,0.032 -1.232,-0.707 -1.333,-0.87 -0.081,-0.131 0.885,-2.102 1.417,-2.89 0.242,-0.357 0.44,-0.675 0.44,-0.706 0,-0.031 0.059,-0.125 0.132,-0.207 0.072,-0.083 0.247,-0.365 0.388,-0.627 0.14,-0.262 0.359,-0.665 0.486,-0.896 0.278,-0.503 0.331,-1.522 0.09,-1.722 -0.078,-0.065 -0.114,-0.166 -0.08,-0.226 0.034,-0.059 0.028,-0.078 -0.012,-0.041 -0.041,0.037 -0.135,0.006 -0.209,-0.068 -0.603,-0.603 -2.129,0.046 -2.129,0.905 0,0.058 -0.142,0.328 -0.315,0.6 -0.173,0.273 -0.345,0.56 -0.382,0.639 -0.066,0.141 -0.124,0.231 -0.682,1.056 -0.156,0.231 -0.526,0.898 -0.821,1.482 l -0.538,1.062 -0.251,-0.164 c -0.138,-0.091 -0.229,-0.194 -0.202,-0.229 0.027,-0.036 0.022,-0.046 -0.009,-0.023 -0.032,0.023 -0.321,-0.09 -0.643,-0.251 -0.322,-0.161 -0.757,-0.369 -0.966,-0.462 -0.21,-0.092 -0.662,-0.3 -1.005,-0.462 -0.719,-0.339 -1.403,-0.557 -2.281,-0.728 -0.34,-0.066 -0.79,-0.163 -1,-0.216 -0.627,-0.157 -1.836,-0.32 -3,-0.402 -0.602,-0.043 -1.588,-0.124 -2.19,-0.179 -4.688,-0.432 -6.427,-0.483 -8.33,-0.245 -0.627,0.078 -1.228,0.142 -1.337,0.142 -0.166,0 -0.262,-0.184 -0.611,-1.167 -1.227,-3.458 -1.319,-3.688 -1.466,-3.69 -0.043,0 -0.047,-0.05 -0.009,-0.11 0.039,-0.064 0.026,-0.085 -0.031,-0.049 -0.055,0.034 -0.153,-0.003 -0.217,-0.081 -0.228,-0.274 -1.261,-0.189 -1.605,0.132 m 13.463,8.828 c 0.576,0.027 1.519,0.132 2.095,0.232 0.576,0.1 1.455,0.251 1.952,0.334 1.91,0.319 2.799,0.603 4.191,1.336 0.235,0.124 0.728,0.38 1.095,0.568 0.928,0.476 0.993,0.517 1.577,1.005 0.285,0.238 0.625,0.479 0.756,0.536 0.53,0.227 1.648,1.24 1.549,1.401 -0.03,0.048 -0.009,0.059 0.047,0.025 0.17,-0.105 1.045,1.047 0.989,1.302 -0.01,0.043 0.018,0.056 0.061,0.03 0.125,-0.078 1.381,1.998 1.692,2.796 0.03,0.079 0.187,0.443 0.347,0.81 0.16,0.366 0.332,0.943 0.381,1.28 0.05,0.337 0.13,0.688 0.179,0.779 0.049,0.092 0.089,0.337 0.089,0.545 0,0.209 0.061,0.7 0.136,1.093 0.143,0.747 0.231,2.06 0.287,4.303 0.032,1.286 0.107,1.952 0.392,3.476 0.073,0.393 0.182,1.186 0.241,1.762 0.063,0.609 0.203,1.311 0.336,1.679 0.125,0.347 0.254,0.84 0.288,1.095 0.033,0.255 0.179,0.707 0.324,1.004 0.145,0.297 0.247,0.565 0.225,0.595 -0.021,0.031 -0.01,0.033 0.026,0.007 0.063,-0.048 0.332,0.407 1.098,1.858 0.602,1.139 0.701,1.309 0.964,1.655 0.426,0.558 1.126,1.603 1.377,2.055 0.132,0.238 0.389,0.615 0.57,0.838 0.182,0.222 0.305,0.404 0.274,0.404 -0.03,0 0.034,0.097 0.142,0.215 0.269,0.291 1.151,1.67 1.407,2.198 0.114,0.236 0.334,0.604 0.489,0.817 0.154,0.213 0.281,0.411 0.281,0.438 0,0.028 0.214,0.375 0.477,0.771 0.262,0.396 0.448,0.766 0.414,0.822 -0.035,0.056 -0.023,0.077 0.027,0.046 0.05,-0.031 0.255,0.252 0.455,0.628 0.201,0.377 0.422,0.75 0.492,0.831 0.07,0.08 0.217,0.337 0.327,0.571 0.11,0.234 0.324,0.597 0.477,0.806 0.152,0.21 0.278,0.472 0.28,0.584 0.002,0.111 0.065,0.253 0.14,0.316 0.19,0.158 0.53,0.831 0.53,1.05 0,0.1 0.032,0.202 0.072,0.227 0.782,0.483 1.143,9.047 0.435,10.299 -0.059,0.105 -0.139,0.399 -0.177,0.652 -0.038,0.254 -0.217,0.811 -0.399,1.238 -0.181,0.428 -0.412,1.003 -0.513,1.279 -0.21,0.577 -0.968,2.057 -1.375,2.689 -0.152,0.235 -0.327,0.521 -0.389,0.635 -0.061,0.114 -0.427,0.644 -0.811,1.178 -0.912,1.266 -1.335,1.888 -1.506,2.218 -0.195,0.377 -0.578,0.739 -0.706,0.666 -0.059,-0.034 -0.074,-0.025 -0.034,0.019 0.089,0.099 -0.499,0.725 -0.615,0.654 -0.045,-0.028 -0.07,-0.013 -0.056,0.035 0.025,0.083 -0.658,0.737 -1.355,1.298 -0.44,0.353 -1.382,1.181 -2.317,2.035 -0.416,0.379 -0.798,0.69 -0.85,0.69 -0.051,0 -0.345,0.219 -0.653,0.486 -0.308,0.267 -0.561,0.461 -0.561,0.432 0,-0.03 -0.096,0.033 -0.214,0.139 -0.194,0.174 -1.065,0.869 -2.105,1.679 -0.217,0.169 -0.459,0.366 -0.538,0.439 -0.308,0.283 -2.907,2.195 -3.282,2.415 -0.107,0.063 -0.636,0.334 -1.176,0.604 -0.54,0.269 -1.258,0.678 -1.596,0.909 -0.338,0.232 -0.652,0.421 -0.697,0.421 -0.045,0 -0.141,0.071 -0.213,0.159 -0.33,0.4 -2.877,1.792 -3.074,1.679 -0.058,-0.032 -0.073,-0.024 -0.034,0.019 0.082,0.09 -0.431,0.429 -0.649,0.429 -0.08,0 -0.38,0.15 -0.666,0.333 -0.287,0.183 -0.595,0.334 -0.686,0.335 -0.091,0.001 -0.636,0.197 -1.213,0.436 -0.576,0.239 -1.091,0.443 -1.145,0.453 -0.054,0.011 -0.233,0.114 -0.396,0.231 -0.164,0.116 -0.348,0.212 -0.411,0.212 -0.144,0 -2.08,0.656 -2.333,0.791 -0.105,0.055 -0.362,0.133 -0.572,0.172 -0.826,0.155 -1.688,0.375 -1.884,0.48 -0.284,0.152 -0.743,0.267 -1.639,0.41 -0.42,0.068 -0.955,0.189 -1.191,0.271 -0.236,0.082 -0.943,0.219 -1.571,0.304 -0.629,0.086 -1.358,0.198 -1.619,0.25 -1.892,0.375 -3.66,0.498 -7.239,0.505 -3.481,0.007 -3.737,-0.009 -6.619,-0.43 -0.707,-0.103 -1.757,-0.252 -2.333,-0.331 -0.917,-0.125 -2.288,-0.37 -4.048,-0.723 -0.288,-0.058 -1.016,-0.23 -1.619,-0.382 -0.602,-0.152 -1.266,-0.318 -1.476,-0.37 -0.209,-0.052 -0.638,-0.22 -0.952,-0.374 -0.314,-0.155 -0.872,-0.394 -1.238,-0.533 -0.367,-0.139 -0.753,-0.3 -0.857,-0.357 -0.105,-0.058 -0.227,-0.094 -0.271,-0.082 -0.044,0.013 -0.687,-0.294 -1.429,-0.681 -1.75,-0.915 -2.048,-1.083 -2.413,-1.358 -0.167,-0.126 -0.338,-0.229 -0.381,-0.23 -0.043,0 -0.335,-0.218 -0.649,-0.483 -0.844,-0.711 -0.9,-0.754 -0.984,-0.754 -0.102,0 -0.968,-0.851 -1.703,-1.672 -0.325,-0.364 -0.806,-0.897 -1.069,-1.185 -0.262,-0.288 -0.478,-0.555 -0.48,-0.592 -0.001,-0.037 -0.167,-0.22 -0.369,-0.406 -0.201,-0.187 -0.481,-0.563 -0.621,-0.837 -0.14,-0.274 -0.42,-0.732 -0.623,-1.016 -0.203,-0.285 -0.466,-0.756 -0.585,-1.048 -0.119,-0.291 -0.288,-0.637 -0.377,-0.768 -0.17,-0.252 -0.348,-0.728 -0.622,-1.667 -0.091,-0.314 -0.229,-0.742 -0.305,-0.952 -0.319,-0.876 -0.496,-1.753 -0.499,-2.476 -0.001,-0.419 -0.045,-1.019 -0.096,-1.334 -0.052,-0.314 -0.16,-1.578 -0.241,-2.809 -0.08,-1.231 -0.186,-2.667 -0.235,-3.191 -0.208,-2.227 -0.061,-4.862 0.376,-6.761 0.168,-0.728 0.431,-2.018 0.514,-2.524 0.021,-0.131 0.105,-0.431 0.186,-0.667 0.138,-0.402 0.259,-0.949 0.451,-2.029 0.045,-0.252 0.206,-0.83 0.359,-1.286 0.153,-0.455 0.331,-1.192 0.396,-1.637 0.064,-0.446 0.156,-1.067 0.203,-1.381 0.091,-0.606 0.307,-1.592 0.521,-2.381 0.198,-0.727 0.517,-2.205 0.517,-2.391 0,-0.091 0.056,-0.233 0.124,-0.316 0.068,-0.083 0.288,-0.665 0.49,-1.293 0.35,-1.093 0.67,-2.033 0.973,-2.857 0.077,-0.21 0.277,-0.667 0.444,-1.016 0.168,-0.349 0.274,-0.616 0.238,-0.593 -0.037,0.023 0.08,-0.203 0.261,-0.503 0.18,-0.299 0.327,-0.602 0.327,-0.674 0,-0.074 0.048,-0.101 0.11,-0.062 0.064,0.039 0.084,0.026 0.049,-0.031 -0.033,-0.054 0.052,-0.307 0.189,-0.562 0.739,-1.376 1.577,-3.039 1.709,-3.393 0.34,-0.915 0.389,-1.023 0.544,-1.194 0.089,-0.098 0.139,-0.201 0.111,-0.228 -0.027,-0.028 0.016,-0.105 0.095,-0.171 0.08,-0.066 0.146,-0.184 0.146,-0.263 0,-0.078 0.08,-0.297 0.178,-0.488 0.098,-0.19 0.259,-0.518 0.357,-0.727 0.098,-0.21 0.248,-0.488 0.333,-0.619 0.086,-0.131 0.236,-0.388 0.335,-0.572 0.098,-0.183 0.321,-0.526 0.494,-0.761 0.173,-0.236 0.494,-0.696 0.713,-1.022 0.22,-0.327 0.613,-0.903 0.875,-1.281 0.85,-1.225 6.506,-6.924 7.668,-7.724 0.288,-0.198 0.801,-0.573 1.142,-0.832 0.34,-0.26 0.776,-0.578 0.968,-0.708 0.192,-0.129 0.377,-0.281 0.411,-0.336 0.035,-0.055 0.109,-0.072 0.166,-0.037 0.057,0.035 0.078,0.024 0.048,-0.025 -0.046,-0.075 1.012,-1.161 1.566,-1.607 0.973,-0.783 1.482,-1.136 2.127,-1.478 0.419,-0.223 0.829,-0.463 0.912,-0.535 0.082,-0.071 0.176,-0.13 0.207,-0.13 0.031,0 0.427,-0.214 0.881,-0.476 0.453,-0.262 0.876,-0.476 0.94,-0.476 0.064,0 0.157,-0.038 0.207,-0.084 0.188,-0.176 3.803,-1.916 3.978,-1.916 0.068,0 0.207,-0.063 0.309,-0.14 0.101,-0.077 0.257,-0.141 0.346,-0.143 0.088,-10e-4 0.303,-0.082 0.476,-0.179 0.173,-0.097 0.594,-0.251 0.934,-0.342 0.34,-0.091 0.761,-0.227 0.935,-0.302 0.174,-0.074 0.363,-0.107 0.42,-0.071 0.061,0.038 0.076,0.019 0.035,-0.047 -0.043,-0.069 0.006,-0.109 0.134,-0.109 0.112,0 0.296,-0.051 0.411,-0.113 0.114,-0.062 0.379,-0.145 0.589,-0.185 0.209,-0.039 0.552,-0.114 0.762,-0.167 0.209,-0.053 0.788,-0.181 1.285,-0.283 0.498,-0.103 1.162,-0.24 1.477,-0.305 0.654,-0.136 6.546,-0.376 7.762,-0.317 0.445,0.022 1.28,0.062 1.857,0.09 m 45.547,43.922 -0.024,42.834 42.834,-0.024 42.833,-0.024 V 74.428 31.619 h -42.809 -42.809 l -0.025,42.833 M 178.286,32.86 c -2.746,0.061 -3.546,0.134 -4.572,0.42 -0.235,0.066 -0.835,0.215 -1.333,0.332 -0.498,0.117 -1.162,0.289 -1.476,0.384 -0.315,0.094 -0.829,0.246 -1.143,0.338 -0.314,0.092 -0.68,0.222 -0.812,0.29 -0.132,0.068 -0.518,0.218 -0.857,0.334 -0.339,0.115 -0.724,0.263 -0.855,0.329 -0.25,0.125 -0.9,0.392 -1.619,0.665 -0.236,0.09 -0.514,0.208 -0.619,0.263 -0.384,0.203 -0.485,0.252 -0.952,0.463 -0.262,0.119 -0.777,0.395 -1.143,0.614 -0.367,0.219 -0.788,0.426 -0.937,0.461 -0.148,0.035 -0.448,0.179 -0.666,0.32 -0.653,0.422 -0.684,0.44 -1.217,0.726 -0.892,0.477 -2.643,1.786 -2.825,2.112 -0.159,0.283 -1.371,1.281 -1.481,1.218 -0.062,-0.035 -0.08,-0.029 -0.041,0.014 0.039,0.044 -0.03,0.147 -0.154,0.23 -0.124,0.083 -0.541,0.387 -0.927,0.675 -0.386,0.288 -0.727,0.523 -0.757,0.523 -0.031,0 -0.203,0.134 -0.383,0.297 -0.18,0.163 -0.627,0.567 -0.993,0.898 -1.036,0.934 -4.143,4.077 -4.143,4.191 0,0.056 -0.044,0.075 -0.098,0.042 -0.053,-0.034 -0.085,-0.023 -0.071,0.024 0.037,0.121 -0.893,1.031 -1.015,0.993 -0.056,-0.018 -0.071,-10e-4 -0.033,0.037 0.039,0.038 -0.047,0.209 -0.19,0.38 -0.143,0.17 -0.41,0.524 -0.593,0.787 -0.183,0.262 -0.376,0.452 -0.428,0.423 -0.053,-0.03 -0.067,-0.022 -0.031,0.018 0.075,0.084 -0.39,0.879 -0.845,1.444 -0.173,0.215 -0.315,0.442 -0.315,0.506 0,0.063 -0.05,0.084 -0.11,0.047 -0.061,-0.038 -0.086,-0.03 -0.057,0.018 0.029,0.047 -0.049,0.257 -0.175,0.467 -0.125,0.209 -0.272,0.488 -0.326,0.619 -0.287,0.696 -0.735,1.613 -1.047,2.143 -0.154,0.262 -0.282,0.538 -0.283,0.613 -0.002,0.129 -1.386,2.958 -2.005,4.099 -0.155,0.287 -0.283,0.559 -0.283,0.603 0,0.045 -0.142,0.324 -0.316,0.621 -0.174,0.297 -0.314,0.561 -0.31,0.588 0.003,0.026 -0.129,0.369 -0.295,0.761 -0.38,0.905 -0.633,1.609 -0.839,2.334 -0.088,0.314 -0.237,0.786 -0.33,1.047 -0.317,0.893 -0.481,1.541 -0.481,1.895 0,0.244 -0.035,0.334 -0.11,0.287 -0.066,-0.041 -0.084,-0.026 -0.046,0.036 0.035,0.057 0.004,0.267 -0.069,0.467 -0.373,1.019 -0.705,2.486 -0.964,4.268 -0.084,0.576 -0.299,1.519 -0.477,2.095 -0.345,1.113 -0.622,2.321 -0.623,2.714 -0.001,0.131 -0.086,0.425 -0.19,0.654 -0.103,0.228 -0.188,0.507 -0.187,0.619 0,0.112 -0.063,0.482 -0.141,0.823 -0.832,3.647 -0.883,5.389 -0.342,11.666 0.054,0.629 0.145,1.786 0.202,2.572 0.093,1.285 0.199,1.833 0.551,2.857 0.055,0.157 0.175,0.564 0.268,0.905 0.093,0.34 0.351,0.978 0.574,1.417 0.224,0.44 0.379,0.847 0.346,0.905 -0.034,0.058 -0.026,0.075 0.016,0.037 0.042,-0.038 0.284,0.262 0.538,0.666 0.253,0.405 0.655,0.96 0.894,1.233 0.238,0.273 0.588,0.702 0.779,0.953 1.227,1.613 4.093,3.996 5.886,4.893 0.419,0.21 0.907,0.468 1.086,0.573 0.178,0.106 0.607,0.301 0.952,0.433 0.346,0.133 0.757,0.298 0.914,0.366 0.157,0.069 0.478,0.198 0.714,0.287 0.236,0.089 0.536,0.218 0.667,0.286 0.582,0.302 2.29,0.733 5.463,1.379 0.516,0.105 1.095,0.191 1.285,0.191 0.191,0 0.69,0.061 1.109,0.136 0.795,0.143 2.157,0.329 4.333,0.592 1.645,0.199 4.667,0.194 6.657,-0.011 4.437,-0.457 5.495,-0.602 6.651,-0.913 0.379,-0.102 0.758,-0.185 0.844,-0.185 0.086,0 0.355,-0.062 0.597,-0.137 0.243,-0.075 0.613,-0.179 0.823,-0.231 0.743,-0.185 2.29,-0.657 2.619,-0.8 0.183,-0.079 0.762,-0.303 1.286,-0.497 0.523,-0.194 1.08,-0.408 1.238,-0.476 0.157,-0.068 0.5,-0.198 0.762,-0.289 0.84,-0.292 3.102,-1.38 3.388,-1.63 0.083,-0.072 0.195,-0.131 0.25,-0.131 0.055,0 0.437,-0.154 0.85,-0.343 0.412,-0.189 0.835,-0.382 0.94,-0.43 0.105,-0.048 0.319,-0.17 0.476,-0.273 0.157,-0.102 0.415,-0.249 0.572,-0.326 0.157,-0.077 0.564,-0.312 0.904,-0.523 0.717,-0.443 1.805,-0.991 1.972,-0.992 0.064,-0.001 0.099,-0.029 0.078,-0.062 -0.054,-0.088 1.246,-0.943 1.548,-1.017 0.143,-0.035 0.487,-0.239 0.766,-0.454 0.278,-0.214 0.557,-0.375 0.619,-0.358 0.062,0.018 0.08,0 0.041,-0.04 -0.04,-0.039 0.281,-0.304 0.714,-0.587 0.432,-0.284 0.875,-0.598 0.983,-0.698 0.108,-0.101 0.24,-0.183 0.293,-0.183 0.053,0 0.196,-0.105 0.317,-0.235 0.122,-0.129 0.255,-0.214 0.296,-0.189 0.041,0.026 0.106,-0.004 0.144,-0.065 0.046,-0.075 0.025,-0.087 -0.065,-0.036 -0.074,0.041 0.016,-0.061 0.199,-0.226 0.535,-0.482 1.399,-1.055 1.48,-0.982 0.041,0.037 0.044,0.013 0.006,-0.052 -0.038,-0.066 -0.032,-0.119 0.013,-0.119 0.045,0 0.313,-0.204 0.594,-0.453 0.282,-0.248 0.559,-0.438 0.615,-0.42 0.056,0.017 0.071,0.001 0.034,-0.037 -0.066,-0.066 0.315,-0.424 0.451,-0.424 0.07,0 2.527,-2.496 2.852,-2.897 0.103,-0.127 0.227,-0.206 0.276,-0.176 0.049,0.03 0.063,0.011 0.03,-0.042 -0.077,-0.124 0.257,-0.433 0.363,-0.337 0.043,0.039 0.052,0.025 0.019,-0.033 -0.066,-0.116 0.528,-0.737 0.631,-0.659 0.035,0.027 0.046,0.024 0.024,-0.007 -0.022,-0.032 0.175,-0.249 0.439,-0.483 0.464,-0.412 1.269,-1.419 2.158,-2.699 0.237,-0.34 0.469,-0.645 0.517,-0.677 0.047,-0.032 0.081,-0.086 0.076,-0.12 -0.015,-0.093 0.222,-0.527 0.606,-1.11 0.665,-1.01 0.891,-1.573 1.389,-3.474 0.11,-0.419 0.258,-0.955 0.329,-1.19 0.548,-1.835 0.34,-6.361 -0.37,-8.021 -0.083,-0.195 -0.151,-0.443 -0.151,-0.551 0,-0.314 -0.338,-1.217 -0.802,-2.143 -0.237,-0.471 -0.431,-0.904 -0.433,-0.961 -0.002,-0.057 -0.089,-0.182 -0.193,-0.277 -0.105,-0.095 -0.191,-0.208 -0.191,-0.252 0,-0.043 -0.261,-0.518 -0.579,-1.055 -0.319,-0.537 -0.641,-1.105 -0.715,-1.263 -0.074,-0.158 -0.217,-0.415 -0.319,-0.573 -0.202,-0.31 -0.409,-0.671 -0.683,-1.19 -0.097,-0.183 -0.338,-0.546 -0.535,-0.806 -0.198,-0.26 -0.295,-0.433 -0.216,-0.385 0.078,0.049 0.004,-0.086 -0.165,-0.299 -0.168,-0.214 -0.297,-0.405 -0.285,-0.425 0.011,-0.021 0.005,-0.028 -0.016,-0.017 -0.12,0.068 -0.894,-1.246 -0.796,-1.353 0.039,-0.044 0.025,-0.053 -0.031,-0.021 -0.089,0.05 -0.389,-0.333 -0.413,-0.527 -0.005,-0.04 -0.077,-0.147 -0.16,-0.239 -0.254,-0.281 -0.746,-1.113 -0.717,-1.214 0.015,-0.052 -0.005,-0.063 -0.044,-0.024 -0.071,0.071 -0.516,-0.508 -0.516,-0.671 0,-0.048 -0.14,-0.276 -0.31,-0.508 -0.283,-0.384 -0.449,-0.648 -0.652,-1.035 -0.042,-0.078 -0.265,-0.466 -0.498,-0.86 -0.232,-0.395 -0.517,-0.952 -0.632,-1.238 -0.116,-0.287 -0.277,-0.671 -0.358,-0.854 -0.311,-0.704 -0.76,-2.745 -0.839,-3.81 -0.025,-0.34 -0.155,-1.24 -0.289,-2 -0.134,-0.759 -0.284,-2.066 -0.333,-2.905 -0.134,-2.284 -0.256,-3.46 -0.425,-4.095 -0.084,-0.314 -0.175,-0.893 -0.202,-1.286 -0.028,-0.392 -0.128,-0.992 -0.223,-1.333 -0.094,-0.34 -0.247,-0.919 -0.34,-1.286 -0.092,-0.366 -0.237,-0.752 -0.321,-0.857 -0.245,-0.306 -0.483,-0.777 -0.487,-0.967 -0.014,-0.599 -1.673,-2.633 -2.576,-3.159 -0.894,-0.52 -1.237,-0.785 -1.17,-0.901 0.036,-0.064 0.032,-0.085 -0.009,-0.048 -0.041,0.037 -0.252,-0.051 -0.467,-0.195 -1.37,-0.917 -3.66,-1.822 -4.965,-1.962 -0.314,-0.034 -1.085,-0.165 -1.714,-0.29 -0.953,-0.191 -4.068,-0.474 -4.538,-0.413 -0.071,0.009 -1.436,0.045 -3.033,0.081 M 10,35.857 v 1.857 h 4.657 4.657 l 0.801,0.368 c 1.218,0.56 2.279,1.915 2.455,3.135 0.059,0.405 0.094,12.96 0.095,34.094 l 0.002,33.454 -0.304,0.546 c -1.099,1.981 -1.921,2.728 -3.714,3.376 l -1.261,0.456 H 13.789 10.19 v 1.714 1.714 h 24.286 24.286 v -1.714 -1.714 h -3.633 -3.633 l -1.153,-0.344 c -2.112,-0.631 -3.079,-1.447 -3.813,-3.22 l -0.34,-0.82 0.024,-35.394 0.024,-35.394 12.559,38.562 c 13.412,41.181 12.816,39.439 13.637,39.815 l 0.501,0.23 0.527,-0.259 0.527,-0.258 1.059,-3.102 c 1.108,-3.247 3.078,-9.203 16.581,-50.147 l 8.228,-24.95 0.026,35.855 0.026,35.854 -0.355,0.976 c -0.472,1.296 -0.757,1.575 -2.154,2.108 l -1.028,0.393 h -4.424 -4.424 v 1.762 1.761 h 17.286 17.285 v -1.761 -1.762 h -4.452 l -4.453,0.001 -1.256,-0.396 c -1.65,-0.52 -1.906,-0.756 -2.373,-2.192 l -0.321,-0.985 V 75.19 l -10e-4,-34.285 0.309,-0.819 c 0.409,-1.083 0.974,-1.622 2.171,-2.068 l 0.814,-0.304 h 4.638 4.639 v -1.809 -1.81 l -11.215,0.004 c -8.615,0.002 -11.262,0.03 -11.42,0.119 -0.877,0.492 0.101,-2.312 -12.056,34.541 -6.083,18.44 -11.085,33.527 -11.116,33.527 -0.031,0 -4.934,-14.9 -10.896,-33.111 C 57.703,46.557 54.121,35.745 53.804,35.056 L 53.34,34.048 31.67,34.024 10,34 v 1.857 m 300.381,38.595 v 38.453 L 271.953,112.881 233.524,112.857 233.5,74.428 233.476,36 h 38.453 38.452 V 74.452 M 42.952,75.429 v 37.714 H 37.905 32.857 V 75.429 37.714 h 5.048 5.047 V 75.429 M 170.876,39.714 c 0.672,0.194 1.029,0.665 1.029,1.359 0,0.867 -0.414,1.297 -1.905,1.979 -0.236,0.108 -0.585,0.276 -0.776,0.375 -0.192,0.099 -0.381,0.15 -0.42,0.114 -0.04,-0.036 -0.046,-0.018 -0.013,0.04 0.061,0.106 -1.253,0.832 -1.507,0.832 -0.073,0 -0.115,0.028 -0.093,0.063 0.042,0.07 -1.304,0.762 -1.482,0.762 -0.06,0 -0.372,0.145 -0.695,0.322 -0.322,0.177 -0.885,0.482 -1.252,0.678 -0.367,0.196 -0.739,0.42 -0.827,0.497 -0.091,0.079 -0.216,0.109 -0.286,0.069 -0.069,-0.04 -0.096,-0.04 -0.06,0 0.036,0.04 -0.251,0.236 -0.638,0.435 -0.387,0.199 -0.952,0.553 -1.256,0.786 -0.617,0.475 -1.881,1.134 -1.989,1.038 -0.038,-0.035 -0.043,-0.016 -0.01,0.042 0.056,0.099 -1.269,0.873 -2.01,1.175 -0.514,0.209 -1.448,-0.232 -1.448,-0.683 0,-0.05 -0.086,-0.2 -0.19,-0.333 -0.197,-0.25 -0.279,-1.044 -0.097,-0.931 0.052,0.032 0.072,0 0.045,-0.071 -0.083,-0.215 0.304,-0.955 0.689,-1.318 0.407,-0.384 1.011,-0.819 1.064,-0.765 0.018,0.019 0.277,-0.179 0.575,-0.441 0.638,-0.562 2.125,-1.579 2.866,-1.96 0.289,-0.148 0.696,-0.364 0.905,-0.48 0.903,-0.499 1.199,-0.648 2.191,-1.105 0.576,-0.266 1.219,-0.565 1.428,-0.665 0.21,-0.1 0.446,-0.207 0.524,-0.237 0.079,-0.03 0.314,-0.162 0.524,-0.294 0.209,-0.131 0.445,-0.266 0.524,-0.298 1.253,-0.519 1.83,-0.722 3.047,-1.071 0.368,-0.105 1.001,-0.07 1.543,0.086 m 69.718,0.834 c -0.252,0.718 -1.68,1.974 -2.639,2.321 l -0.336,0.122 v 0.981 c 0,0.846 0.021,0.98 0.157,0.98 0.257,0 1.493,-0.633 2.044,-1.046 l 0.513,-0.386 0.025,3.907 0.025,3.906 h 1.047 1.046 V 45.81 40.286 h -0.895 c -0.891,0 -0.896,10e-4 -0.987,0.262 m 7.882,-0.173 c -2.333,0.712 -3.526,4.16 -2.722,7.863 0.933,4.297 6.419,4.54 7.116,0.315 0.519,-3.146 -2.598,-5.66 -4.759,-3.838 l -0.318,0.268 0.064,-0.468 c 0.239,-1.762 0.692,-2.42 1.669,-2.42 0.467,0 0.916,0.379 1.011,0.851 0.067,0.337 0.211,0.356 1.454,0.195 0.869,-0.113 0.818,-0.039 0.564,-0.819 -0.511,-1.571 -2.383,-2.465 -4.079,-1.947 m 88.19,0.315 c -10e-4,0.014 -0.012,1.835 -0.024,4.048 l -0.023,4.024 h 4.024 4.024 v -4.048 -4.047 h -4 c -2.2,0 -4.001,0.01 -4.001,0.023 m 10.064,0.04 c -0.035,0.035 -0.063,1.857 -0.063,4.048 v 3.984 h 4.047 4.048 v -4.048 -4.047 h -3.984 c -2.191,0 -4.013,0.028 -4.048,0.063 m 10.095,0 c -0.035,0.035 -0.063,1.857 -0.063,4.048 v 3.984 h 4.048 4.047 v -4.048 -4.047 h -3.984 c -2.191,0 -4.013,0.028 -4.048,0.063 m 10.096,0 c -0.035,0.035 -0.064,1.857 -0.064,4.048 v 3.984 h 4.048 4.047 v -4.048 -4.047 h -3.984 c -2.191,0 -4.012,0.028 -4.047,0.063 m -177.01,1.389 c 0.97,1.34 -0.849,2.606 -1.884,1.312 -0.064,-0.08 -0.116,-0.36 -0.116,-0.621 0,-1.121 1.351,-1.587 2,-0.691 m 60.085,3.831 c 0.976,0.505 1.043,3.049 0.095,3.609 -1.076,0.635 -2.183,-0.513 -2.067,-2.145 0.091,-1.285 1.005,-1.964 1.972,-1.464 m -70.139,2.375 c 1.271,0.283 1.78,0.849 1.911,2.121 0.032,0.305 0.115,0.833 0.185,1.173 0.405,1.957 0.589,9.208 0.291,11.48 -0.216,1.642 -0.209,5.86 0.01,6.657 0.175,0.634 0.631,1.387 0.841,1.387 0.074,0 0.168,0.056 0.21,0.124 0.207,0.339 1.98,0.966 3.409,1.205 0.21,0.036 0.475,0.115 0.589,0.177 0.115,0.062 0.299,0.113 0.411,0.113 0.111,0 0.181,0.034 0.156,0.075 -0.026,0.041 0.025,0.079 0.113,0.085 0.383,0.026 1.263,0.219 1.448,0.317 0.111,0.06 0.445,0.17 0.742,0.246 1.949,0.497 2.612,1.312 2.459,3.029 -0.074,0.84 -0.149,1.121 -0.277,1.042 -0.054,-0.034 -0.071,-0.016 -0.036,0.04 0.095,0.154 -0.034,0.404 -0.21,0.406 -0.086,0.001 -0.257,0.079 -0.38,0.174 -0.252,0.194 -1.845,0.196 -3.491,0.004 -0.471,-0.055 -1.457,-0.132 -2.19,-0.172 -0.734,-0.04 -1.409,-0.106 -1.501,-0.146 -0.511,-0.224 -1.499,0.443 -1.499,1.013 0,0.151 -0.065,0.428 -0.143,0.616 -0.334,0.798 -0.011,4.172 0.576,6.033 0.075,0.236 0.199,0.878 0.276,1.428 0.201,1.432 0.769,3.832 1.138,4.81 0.08,0.209 0.146,0.433 0.148,0.497 0.003,0.064 0.109,0.343 0.238,0.619 0.128,0.277 0.295,0.717 0.372,0.979 0.076,0.262 0.229,0.778 0.338,1.146 0.353,1.183 0.167,2.568 -0.344,2.568 -0.059,0 -0.139,0.033 -0.179,0.072 -0.039,0.039 -0.152,0.071 -0.251,0.071 -0.098,0 -0.298,0.062 -0.444,0.137 -0.34,0.176 -2.097,0.53 -2.63,0.53 -1.184,0 -2.487,-0.882 -2.635,-1.785 -0.007,-0.04 -0.113,-0.233 -0.237,-0.429 -0.124,-0.197 -0.203,-0.357 -0.175,-0.357 0.029,0 -0.018,-0.136 -0.104,-0.302 -0.156,-0.301 -0.631,-1.982 -0.817,-2.889 -0.053,-0.262 -0.156,-0.69 -0.227,-0.952 -0.22,-0.804 -0.519,-2.584 -0.519,-3.089 0,-0.263 -0.06,-0.64 -0.133,-0.838 -0.127,-0.343 -0.254,-1.064 -0.578,-3.264 -0.081,-0.55 -0.147,-1.539 -0.147,-2.199 0.001,-2.689 -0.097,-3.758 -0.371,-4.054 -0.136,-0.147 -0.233,-0.311 -0.216,-0.364 0.018,-0.053 0.002,-0.067 -0.035,-0.03 -0.037,0.037 -0.204,-0.037 -0.371,-0.164 -0.869,-0.662 -3.424,-0.829 -8.007,-0.523 -0.89,0.059 -3.011,0.147 -4.714,0.195 -4.227,0.118 -4.447,0.186 -5.179,1.603 -0.236,0.458 -0.449,0.941 -0.473,1.074 -0.043,0.238 -0.191,0.593 -0.728,1.748 -0.145,0.314 -0.339,0.786 -0.43,1.048 -0.091,0.261 -0.224,0.57 -0.295,0.684 -0.185,0.298 -0.693,1.773 -1.042,3.03 -0.376,1.354 -0.663,2.238 -0.866,2.668 -0.124,0.262 -0.225,0.537 -0.225,0.611 0,0.25 -0.323,1.197 -0.495,1.45 -0.094,0.139 -0.172,0.306 -0.172,0.372 0,0.105 -0.34,0.85 -0.563,1.232 -0.045,0.079 -0.13,0.25 -0.188,0.381 -0.057,0.131 -0.148,0.313 -0.2,0.405 -0.171,0.297 -0.275,0.49 -0.576,1.071 -0.482,0.931 -0.669,1.03 -1.945,1.03 -0.884,0 -1.147,-0.035 -1.491,-0.196 -0.23,-0.107 -0.696,-0.289 -1.037,-0.403 -1.892,-0.636 -2.487,-1.579 -1.955,-3.097 0.466,-1.334 0.544,-1.527 0.67,-1.667 0.071,-0.079 0.128,-0.177 0.127,-0.219 -0.003,-0.07 0.749,-1.672 0.991,-2.114 0.058,-0.105 0.214,-0.405 0.348,-0.667 0.134,-0.262 0.383,-0.679 0.555,-0.928 0.172,-0.248 0.312,-0.48 0.312,-0.514 0,-0.035 0.115,-0.215 0.255,-0.399 0.141,-0.184 0.195,-0.297 0.121,-0.251 -0.074,0.045 -0.039,-0.039 0.078,-0.187 0.117,-0.149 0.213,-0.322 0.213,-0.386 0,-0.149 0.331,-0.735 0.809,-1.433 0.663,-0.966 0.709,-1.04 0.815,-1.283 0.056,-0.131 0.196,-0.341 0.311,-0.468 0.114,-0.126 0.151,-0.196 0.081,-0.156 -0.07,0.04 -0.028,-0.078 0.093,-0.262 0.121,-0.185 0.264,-0.311 0.317,-0.281 0.054,0.03 0.067,0.021 0.03,-0.02 -0.131,-0.146 0.5,-1.152 0.642,-1.024 0.041,0.037 0.046,0.018 0.011,-0.044 -0.036,-0.062 -0.021,-0.14 0.032,-0.173 0.053,-0.033 0.097,-0.167 0.097,-0.298 0,-0.13 0.033,-0.217 0.075,-0.191 0.041,0.025 0.084,-0.026 0.095,-0.114 0.132,-1.015 0.13,-1.051 -0.081,-1.507 -0.118,-0.254 -0.204,-0.505 -0.191,-0.557 0.012,-0.053 -0.009,-0.064 -0.048,-0.025 -0.039,0.039 -0.133,0.019 -0.21,-0.045 -0.269,-0.223 -1.396,-0.449 -2.259,-0.452 -1.63,-0.006 -1.953,-0.259 -1.953,-1.528 0,-0.558 0.031,-0.752 0.11,-0.703 0.065,0.04 0.085,0.026 0.047,-0.034 -0.083,-0.135 0.199,-0.633 0.581,-1.022 0.171,-0.173 0.31,-0.296 0.31,-0.272 0,0.024 0.096,-0.064 0.214,-0.195 0.369,-0.412 1.29,-0.65 2.67,-0.691 1.7,-0.051 2.733,-0.169 3.089,-0.352 0.167,-0.087 0.38,-0.157 0.474,-0.157 0.162,0 0.982,-0.813 0.982,-0.974 0,-0.042 0.144,-0.301 0.32,-0.576 0.176,-0.274 0.513,-0.798 0.749,-1.165 0.236,-0.366 0.607,-0.859 0.823,-1.095 0.216,-0.236 0.393,-0.46 0.393,-0.499 0,-0.128 0.822,-1.352 1.123,-1.672 0.162,-0.172 0.475,-0.579 0.696,-0.905 0.529,-0.78 0.908,-1.211 0.997,-1.131 0.04,0.035 0.045,0.016 0.011,-0.042 -0.033,-0.059 0.155,-0.359 0.418,-0.667 0.786,-0.921 0.83,-0.978 0.784,-1.024 -0.025,-0.024 0.334,-0.423 0.797,-0.887 0.462,-0.463 1.119,-1.185 1.46,-1.603 0.57,-0.701 2.183,-2.42 3.416,-3.644 0.282,-0.279 0.663,-0.687 0.848,-0.907 0.184,-0.22 0.375,-0.388 0.424,-0.374 0.048,0.015 0.064,-0.012 0.036,-0.058 -0.109,-0.176 1.841,-1.983 1.992,-1.846 0.042,0.038 0.047,0.018 0.011,-0.045 -0.053,-0.093 0.51,-0.608 1.415,-1.292 0.053,-0.04 0.321,-0.247 0.596,-0.461 0.275,-0.213 0.5,-0.361 0.5,-0.329 0,0.033 0.131,-0.09 0.292,-0.273 0.16,-0.182 0.385,-0.361 0.5,-0.397 0.114,-0.036 0.379,-0.182 0.589,-0.324 0.499,-0.34 1.253,-0.668 1.534,-0.668 0.123,0 0.386,-0.061 0.583,-0.137 0.712,-0.272 1.815,-0.316 2.74,-0.109 m 146.714,6.485 v 4.047 h 4 4 V 54.81 50.762 h -4 -4 V 54.81 M 152.333,52.749 c 0.904,0.603 0.972,1.971 0.129,2.612 -0.635,0.484 -1.696,0.753 -2.094,0.533 -0.124,-0.069 -0.251,-0.118 -0.282,-0.11 -0.031,0.009 -0.214,-0.146 -0.407,-0.343 -1.425,-1.459 0.926,-3.844 2.654,-2.692 m 10.477,0.395 c 0.033,0.054 0.094,0.076 0.135,0.051 0.149,-0.092 0.5,0.414 0.551,0.794 0.171,1.276 -1.509,1.872 -2.129,0.755 -0.261,-0.47 0.029,-1.554 0.415,-1.554 0.059,0 0.139,-0.032 0.178,-0.071 0.107,-0.106 0.781,-0.086 0.85,0.025 m 105.666,1.572 c -9.926,1.223 -15.438,8.412 -12.851,16.76 1.63,5.263 5.715,7.968 15.899,10.527 7.918,1.991 9.587,2.901 10.1,5.506 0.648,3.296 -2.184,6.369 -6.471,7.02 -6.7,1.017 -11.083,-1.762 -12.437,-7.886 -0.122,-0.552 -0.203,-0.739 -0.321,-0.743 -0.086,-0.002 -2.162,0.179 -4.612,0.404 l -4.454,0.408 0.057,0.43 c 0.975,7.256 4.531,12.191 10.289,14.28 5.923,2.148 15.057,1.757 20.14,-0.863 9.026,-4.652 10,-18.088 1.712,-23.598 -2.331,-1.549 -5.293,-2.624 -11.569,-4.198 -7.793,-1.954 -9.815,-3.17 -9.815,-5.906 0,-2.786 2.937,-4.48 7.77,-4.481 4.856,-0.002 7.258,1.646 8.251,5.659 l 0.251,1.013 0.435,0.002 c 0.24,0.002 2.354,-0.072 4.698,-0.163 l 4.262,-0.165 v -0.563 c 0,-5.466 -3.774,-10.487 -9.341,-12.429 -2.82,-0.983 -8.41,-1.456 -11.993,-1.014 m -93.913,0.042 c -0.421,0.127 -1.242,0.748 -2.128,1.607 -0.468,0.454 -0.897,0.825 -0.953,0.825 -0.055,0 -0.101,0.045 -0.101,0.1 0,0.154 -0.404,0.652 -1.31,1.616 -0.458,0.487 -0.833,0.926 -0.833,0.975 0,0.049 -0.289,0.409 -0.643,0.801 -1,1.109 -1.3,1.457 -1.646,1.903 -0.522,0.676 -0.987,1.179 -1.066,1.153 -0.04,-0.013 -0.063,0.011 -0.05,0.053 0.025,0.078 -0.012,0.139 -0.927,1.533 -0.289,0.44 -0.525,0.837 -0.525,0.881 0,0.044 -0.037,0.081 -0.083,0.081 -0.045,0 -0.197,0.173 -0.337,0.384 -0.148,0.225 -0.298,0.357 -0.36,0.319 -0.059,-0.036 -0.083,-0.027 -0.053,0.021 0.048,0.078 -0.083,0.403 -0.379,0.942 -1.573,2.867 -0.263,4.481 3.355,4.133 0.471,-0.045 2.443,-0.122 4.381,-0.17 5.265,-0.132 5.101,-0.001 5.627,-4.486 0.093,-0.789 0.163,-2.336 0.182,-4 0.018,-1.493 0.063,-3.817 0.101,-5.163 0.065,-2.304 0.059,-2.464 -0.11,-2.714 -0.098,-0.147 -0.223,-0.351 -0.277,-0.455 -0.202,-0.387 -1.143,-0.558 -1.865,-0.339 m 152.008,10.147 v 4.047 h 4 4 v -4.047 -4.048 h -4 -4 v 4.048 m -125.37,3.117 c 0.438,0.337 0.507,0.472 0.51,0.991 0.007,1.082 -1.239,1.573 -1.959,0.771 -0.89,-0.992 0.406,-2.568 1.449,-1.762 M 336.667,75 v 4.048 h 4 4 V 75 70.952 h -4 -4 V 75 m 10.063,-3.984 c -0.035,0.035 -0.063,1.856 -0.063,4.047 v 3.985 h 4.047 4.048 V 75 70.952 h -3.984 c -2.191,0 -4.013,0.029 -4.048,0.064 M 356.762,75 v 4.048 h 4.048 4.047 V 75 70.952 h -4.047 -4.048 V 75 m 10.095,10.095 v 4.048 h 4.048 4.047 v -4.048 -4.047 h -4.047 -4.048 v 4.047 M 139.944,81.296 c 0.083,0.031 0.122,0.102 0.088,0.157 -0.035,0.057 -0.016,0.072 0.043,0.036 0.293,-0.181 0.672,0.691 0.547,1.259 -0.242,1.102 -1.995,1.06 -2.203,-0.054 -0.176,-0.937 0.68,-1.722 1.525,-1.398 m 65.028,0.905 c 0.277,0.058 0.572,0.166 0.655,0.238 0.082,0.073 0.192,0.132 0.242,0.132 0.189,0 1.193,0.988 1.383,1.361 1.076,2.109 -1.429,5.339 -3.596,4.638 -0.698,-0.226 -1.727,-1.335 -2.074,-2.237 -0.228,-0.591 -0.326,-1.535 -0.148,-1.425 0.073,0.045 0.095,0.035 0.058,-0.026 -0.06,-0.096 0.096,-0.645 0.39,-1.375 0.38,-0.944 1.851,-1.566 3.09,-1.306 m -11.875,2.943 c 0.387,0.239 0.562,0.648 0.495,1.153 -0.051,0.38 -0.403,0.886 -0.552,0.794 -0.041,-0.026 -0.101,-0.003 -0.134,0.05 -0.085,0.137 -0.747,0.121 -0.901,-0.022 -0.104,-0.097 -0.114,-0.092 -0.05,0.024 0.047,0.086 -0.009,0.067 -0.139,-0.048 -1.139,-1 0.003,-2.741 1.281,-1.951 m 173.76,10.046 v 4.048 h 4.048 4.047 V 95.19 91.143 h -4.047 -4.048 V 95.19 M 159.971,93.929 c 0.777,0.852 0.316,2.071 -0.784,2.071 -0.955,0 -1.433,-1.295 -0.744,-2.015 0.35,-0.365 1.218,-0.397 1.528,-0.056 m 166.6,11.357 v 4.047 h 4 4 v -4.047 -4.048 h -4 -4 v 4.048 m 10.096,0 v 4.047 h 4 4 v -4.047 -4.048 h -4 -4 v 4.048 m 10.022,-0.024 0.025,4.024 4.024,0.025 4.024,0.024 v -4.048 -4.049 h -4.049 -4.048 l 0.024,4.024 m 10.073,0.024 v 4.047 h 4.048 4.047 v -4.047 -4.048 h -4.047 -4.048 v 4.048 m -206.075,-2.135 c 0.626,0.749 0.096,1.89 -0.877,1.89 -0.921,0 -1.474,-1.071 -0.941,-1.819 0.414,-0.582 1.361,-0.618 1.818,-0.071 m 5.694,0.891 c 2.161,0.696 3.791,1.101 4.427,1.101 0.179,0 0.574,0.065 0.878,0.144 0.893,0.233 6.265,0.304 7.933,0.105 1.601,-0.191 2.338,-0.194 2.857,-0.011 0.223,0.079 0.56,0.144 0.75,0.145 1.287,0.008 2.062,1.283 1.337,2.199 -0.162,0.204 -0.329,0.35 -0.371,0.324 -0.042,-0.027 -0.1,0.013 -0.129,0.088 -0.208,0.543 -9.094,1.14 -10.777,0.724 -0.21,-0.052 -0.638,-0.097 -0.953,-0.1 -0.314,-0.003 -0.85,-0.067 -1.19,-0.142 -0.341,-0.075 -0.832,-0.138 -1.093,-0.139 -0.661,-0.005 -2.484,-0.588 -3.929,-1.257 -0.583,-0.27 -1.51,-1.227 -1.575,-1.626 -0.106,-0.653 0.164,-1.414 0.44,-1.243 0.05,0.031 0.063,0.011 0.029,-0.044 -0.168,-0.272 0.776,-0.458 1.366,-0.268"
       stroke="none"
       fill="#000000"
       fill-rule="evenodd"
       style="fill:#ffffff" />
  </g>
</svg>
