<?xml version="1.0" encoding="utf-8"?>
<!-- Generator: Adobe Illustrator 17.1.0, SVG Export Plug-In . SVG Version: 6.00 Build 0)  -->
<!DOCTYPE svg PUBLIC "-//W3C//DTD SVG 1.1//EN" "http://www.w3.org/Graphics/SVG/1.1/DTD/svg11.dtd">
<svg version="1.1" id="Layer_1" xmlns="http://www.w3.org/2000/svg" xmlns:xlink="http://www.w3.org/1999/xlink" x="0px" y="0px"
	 viewBox="0 0 800 800" enable-background="new 0 0 800 800" xml:space="preserve">
<g>
	<g opacity="0.5">
		
			<image overflow="visible" width="2946" height="3355" xlink:href="60A14548.png"  transform="matrix(0.24 0 0 0.24 48.5278 -1.0854)">
		</image>
	</g>
	<g>
		<g>
			<path fill="#E5E5E5" d="M398,66.6l287.5,166v331.9L398,730.4l-287.5-166V232.5L398,66.6 M398,31.9l-15,8.7l-287.5,166l-15,8.7
				v17.3v331.9v17.3l15,8.7l287.5,166l15,8.7l15-8.7l287.5-166l15-8.7v-17.3V232.5v-17.3l-15-8.7L413,40.6L398,31.9L398,31.9z"/>
		</g>
		<g>
			<defs>
				<polygon id="SVGID_1_" points="589.7,509.1 398.1,619.7 206.5,509.1 206.5,287.9 398.1,177.3 589.7,287.9 				"/>
			</defs>
			<clipPath id="SVGID_2_">
				<use xlink:href="#SVGID_1_"  overflow="visible"/>
			</clipPath>
			<g clip-path="url(#SVGID_2_)">
				<path fill="#E5E5E5" d="M559.6,339.8v323l-323.3-0.9V339.8L383,424.5l15,8.7l15-8.7L559.6,339.8 M589.6,287.9L398,398.5
					L206.4,287.9v404l383.3,1V287.9L589.6,287.9z"/>
			</g>
		</g>
		<line fill="none" stroke="#E5E5E5" stroke-width="30" stroke-miterlimit="10" x1="398" y1="730.4" x2="398" y2="633.7"/>
		<line fill="none" stroke="#E5E5E5" stroke-width="30" stroke-miterlimit="10" x1="468.3" y1="714.1" x2="468.3" y2="633.7"/>
		<line fill="none" stroke="#E5E5E5" stroke-width="30" stroke-miterlimit="10" x1="327.9" y1="714.1" x2="327.9" y2="633.7"/>
	</g>
</g>
</svg>
