<?xml version="1.0" encoding="utf-8"?>
<!-- Generator: Adobe Illustrator 17.1.0, SVG Export Plug-In . SVG Version: 6.00 Build 0)  -->
<!DOCTYPE svg PUBLIC "-//W3C//DTD SVG 1.1//EN" "http://www.w3.org/Graphics/SVG/1.1/DTD/svg11.dtd">
<svg version="1.1" id="Layer_1" xmlns="http://www.w3.org/2000/svg" xmlns:xlink="http://www.w3.org/1999/xlink" x="0px" y="0px"
	 viewBox="0 0 100 100" enable-background="new 0 0 100 100" xml:space="preserve">
<g>
	<path fill="#FFFFFF" d="M50,4.5c25.1,0,45.5,20.4,45.5,45.5S75.1,95.5,50,95.5S4.5,75.1,4.5,50S24.9,4.5,50,4.5 M50,1.5
		C23.2,1.5,1.5,23.2,1.5,50S23.2,98.5,50,98.5S98.5,76.8,98.5,50S76.8,1.5,50,1.5L50,1.5z"/>
</g>
<g>
	<path fill="#FFFFFF" d="M42.6,50.4l-1.5-1.2c2.3-2.6,4.5-4.4,6.4-5.5s3.6-1.6,4.9-1.6c0.7,0,1.3,0.2,1.7,0.5
		c0.4,0.3,0.6,0.8,0.6,1.3c0,0.7-0.8,3.6-2.3,8.6c-2.5,8.3-3.7,13.3-3.7,15c0,0.3,0.1,0.6,0.2,0.8s0.3,0.3,0.5,0.3
		c0.8,0,2.7-1.5,5.8-4.4l1.4,1.3c-3.2,3-5.6,5-7,5.8s-2.7,1.3-3.6,1.3c-0.8,0-1.5-0.3-2-0.8s-0.7-1.2-0.7-2.1
		c0-2.9,1.8-10.1,5.3-21.5c0.2-0.5,0.2-1,0.2-1.4c0-0.5-0.2-0.7-0.6-0.7c-0.5,0-1,0.2-1.6,0.6C46,47.2,44.7,48.4,42.6,50.4z
		 M56.4,27.2c0.7,0,1.3,0.2,1.8,0.7c0.5,0.5,0.7,1.1,0.7,1.8c0,1-0.4,1.9-1.1,2.7c-0.7,0.8-1.5,1.2-2.4,1.2c-0.7,0-1.3-0.2-1.8-0.7
		S53,31.8,53,31c0-1.1,0.3-2,1-2.7S55.5,27.2,56.4,27.2z"/>
</g>
</svg>
