<?xml version="1.0" encoding="utf-8"?>
<!-- Generator: Adobe Illustrator 17.1.0, SVG Export Plug-In . SVG Version: 6.00 Build 0)  -->
<!DOCTYPE svg PUBLIC "-//W3C//DTD SVG 1.1//EN" "http://www.w3.org/Graphics/SVG/1.1/DTD/svg11.dtd">
<svg version="1.1" id="Layer_1" xmlns="http://www.w3.org/2000/svg" xmlns:xlink="http://www.w3.org/1999/xlink" x="0px" y="0px"
	 viewBox="0 0 100 100" enable-background="new 0 0 100 100" xml:space="preserve">
<g>
	<path fill="#FFFFFF" d="M50,4.5c25.1,0,45.5,20.4,45.5,45.5S75.1,95.5,50,95.5S4.5,75.1,4.5,50S24.9,4.5,50,4.5 M50,1.5
		C23.2,1.5,1.5,23.2,1.5,50S23.2,98.5,50,98.5S98.5,76.8,98.5,50S76.8,1.5,50,1.5L50,1.5z"/>
</g>
<path fill="#FF0000" d="M50,25.3"/>
<g>
	<g>
		<circle fill="#FFFFFF" cx="50.1" cy="37.1" r="8.5"/>
	</g>
	<path fill="#FFFFFF" d="M56.2,46.1C54.5,47.3,52.3,48,50,48c-2.3,0-4.4-0.7-6.2-1.9l0,0c-2.9,2-4.8,5.3-4.8,9v16.1H61V55.1
		C61,51.4,59.1,48.1,56.2,46.1"/>
</g>
<g id="XMLID_5_">
	<g>
		<path fill="#FFFFFF" d="M74.6,55.1v13.5H63.3V54.4c0-2.1-0.5-4.2-1.4-6c1.1,0.5,2.3,0.7,3.5,0.7c1.9,0,3.7-0.6,5.2-1.6v0
			C73,49.2,74.6,52,74.6,55.1z"/>
		<path fill="#FFFFFF" d="M65.4,32.9c3.9,0,7.1,3.2,7.1,7.1c0,3.9-3.2,7.1-7.1,7.1c-2.8,0-5.2-1.6-6.3-3.9c0,0,0,0,0,0
			c1.2-1.8,1.9-3.9,1.9-6.1c0-0.8-0.1-1.6-0.3-2.3C62,33.6,63.7,32.9,65.4,32.9z"/>
	</g>
	<g>
	</g>
</g>
<g id="XMLID_4_">
	<g>
		<path fill="#FFFFFF" d="M25.4,55.1v13.5h11.3V54.4c0-2.1,0.5-4.2,1.4-6c-1.1,0.5-2.3,0.7-3.5,0.7c-1.9,0-3.7-0.6-5.2-1.6v0
			C27,49.2,25.4,52,25.4,55.1z"/>
		<path fill="#FFFFFF" d="M34.5,32.9c-3.9,0-7.1,3.2-7.1,7.1c0,3.9,3.2,7.1,7.1,7.1c2.8,0,5.2-1.6,6.3-3.9c0,0,0,0,0,0
			C39.7,41.4,39,39.3,39,37c0-0.8,0.1-1.6,0.3-2.3C38,33.6,36.3,32.9,34.5,32.9z"/>
	</g>
	<g>
	</g>
</g>
</svg>
