<?xml version="1.0" encoding="utf-8"?>
<!-- Generator: Adobe Illustrator 17.1.0, SVG Export Plug-In . SVG Version: 6.00 Build 0)  -->
<!DOCTYPE svg PUBLIC "-//W3C//DTD SVG 1.1//EN" "http://www.w3.org/Graphics/SVG/1.1/DTD/svg11.dtd">
<svg version="1.1" id="Layer_1" xmlns="http://www.w3.org/2000/svg" xmlns:xlink="http://www.w3.org/1999/xlink" x="0px" y="0px"
	 viewBox="0 0 100 100" enable-background="new 0 0 100 100" xml:space="preserve">
<g>
	<path fill="#FFFFFF" d="M50,4.5c25.1,0,45.5,20.4,45.5,45.5S75.1,95.5,50,95.5S4.5,75.1,4.5,50S24.9,4.5,50,4.5 M50,1.5
		C23.2,1.5,1.5,23.2,1.5,50S23.2,98.5,50,98.5S98.5,76.8,98.5,50S76.8,1.5,50,1.5L50,1.5z"/>
</g>
<g>
	<g>
		<path fill="#FFFFFF" d="M69.8,44v23.2H30.2V44H69.8 M72.8,41H27.2v29.2h45.6V41L72.8,41z"/>
	</g>
	<g>
		<g>
			<circle fill="#FFFFFF" cx="38.7" cy="32.1" r="2.3"/>
			<circle fill="#FFFFFF" cx="38.7" cy="36.7" r="2.3"/>
			<rect x="36.4" y="32.1" fill="#FFFFFF" width="4.6" height="4.6"/>
		</g>
		<g>
			<circle fill="#FFFFFF" cx="61" cy="32.1" r="2.3"/>
			<circle fill="#FFFFFF" cx="61" cy="36.7" r="2.3"/>
			<rect x="58.7" y="32.1" fill="#FFFFFF" width="4.6" height="4.6"/>
		</g>
	</g>
	<g id="XMLID_6_">
		<g>
			<path fill="#FFFFFF" d="M72.8,35.8v6.3H61V41c2.4,0,4.4-1.7,4.4-3.9v-1.3H72.8z"/>
			<path fill="#FFFFFF" d="M61,41v1.1H38.7V41c2.4,0,4.4-1.7,4.4-3.9v-1.3h13.5v1.3C56.6,39.3,58.6,41,61,41z"/>
			<path fill="#FFFFFF" d="M38.7,41v1.1H27.2v-6.3h7.1v1.3C34.3,39.3,36.3,41,38.7,41z"/>
		</g>
		<g>
		</g>
	</g>
	<rect x="34.3" y="50.9" fill="#FFFFFF" width="8.8" height="8.8"/>
	<line fill="none" stroke="#FFFFFF" stroke-width="3" stroke-miterlimit="10" x1="46.4" y1="55.3" x2="65.4" y2="55.3"/>
</g>
</svg>
