<?xml version="1.0" encoding="utf-8"?>
<!-- Generator: Adobe Illustrator 17.1.0, SVG Export Plug-In . SVG Version: 6.00 Build 0)  -->
<!DOCTYPE svg PUBLIC "-//W3C//DTD SVG 1.1//EN" "http://www.w3.org/Graphics/SVG/1.1/DTD/svg11.dtd">
<svg version="1.1" id="Layer_1" xmlns="http://www.w3.org/2000/svg" xmlns:xlink="http://www.w3.org/1999/xlink" x="0px" y="0px"
	 viewBox="0 0 100 100" enable-background="new 0 0 100 100" xml:space="preserve">
<g>
	<path fill="#FFFFFF" d="M50,4.5c25.1,0,45.5,20.4,45.5,45.5S75.1,95.5,50,95.5S4.5,75.1,4.5,50S24.9,4.5,50,4.5 M50,1.5
		C23.2,1.5,1.5,23.2,1.5,50S23.2,98.5,50,98.5S98.5,76.8,98.5,50S76.8,1.5,50,1.5L50,1.5z"/>
</g>
<g>
	<g>
		<path fill="#FFFFFF" d="M67.3,33.3v28.4H27.7V33.3H67.3 M70.3,30.3H24.7v34.4h45.6V30.3L70.3,30.3z"/>
	</g>
	<polyline fill="none" stroke="#FFFFFF" stroke-width="3" stroke-miterlimit="10" points="68.9,35.2 75.3,35.2 75.3,69.7 29.7,69.7 
		29.7,63.4 	"/>
	<rect x="31.2" y="36.9" fill="#FFFFFF" width="8.8" height="8.8"/>
	<line fill="none" stroke="#FFFFFF" stroke-width="3" stroke-miterlimit="10" x1="44.5" y1="38.5" x2="62.3" y2="38.5"/>
	<line fill="none" stroke="#FFFFFF" stroke-width="3" stroke-miterlimit="10" x1="44.5" y1="44.3" x2="62.3" y2="44.3"/>
	<line fill="none" stroke="#FFFFFF" stroke-width="3" stroke-miterlimit="10" x1="31.1" y1="50" x2="62.3" y2="50"/>
	<line fill="none" stroke="#FFFFFF" stroke-width="3" stroke-miterlimit="10" x1="31.1" y1="56" x2="62.3" y2="56"/>
</g>
</svg>
